<svg width="110" height="110" viewBox="0 0 110 110" fill="none" xmlns="http://www.w3.org/2000/svg">
<path d="M107.56 2.5237C104.306 -0.729994 99.0501 -0.729994 95.7964 2.5237L55 43.2366L14.2036 2.44027C10.9499 -0.813424 5.69397 -0.813424 2.44027 2.44027C-0.813424 5.69397 -0.813424 10.9499 2.44027 14.2036L43.2366 55L2.44027 95.7964C-0.813424 99.0501 -0.813424 104.306 2.44027 107.56C5.69397 110.813 10.9499 110.813 14.2036 107.56L55 66.7634L95.7964 107.56C99.0501 110.813 104.306 110.813 107.56 107.56C110.813 104.306 110.813 99.0501 107.56 95.7964L66.7634 55L107.56 14.2036C110.73 11.0334 110.73 5.69397 107.56 2.5237Z" fill="#FBFBFB"/>
</svg>
