<svg width="150" height="111" viewBox="0 0 150 111" fill="none" xmlns="http://www.w3.org/2000/svg">
<path d="M8.33333 110.545H141.667C146.25 110.545 150 106.42 150 101.379C150 96.3371 146.25 92.2121 141.667 92.2121H8.33333C3.75 92.2121 0 96.3371 0 101.379C0 106.42 3.75 110.545 8.33333 110.545ZM8.33333 64.7121H141.667C146.25 64.7121 150 60.5871 150 55.5454C150 50.5037 146.25 46.3787 141.667 46.3787H8.33333C3.75 46.3787 0 50.5037 0 55.5454C0 60.5871 3.75 64.7121 8.33333 64.7121ZM0 9.71208C0 14.7537 3.75 18.8787 8.33333 18.8787H141.667C146.25 18.8787 150 14.7537 150 9.71208C150 4.67041 146.25 0.54541 141.667 0.54541H8.33333C3.75 0.54541 0 4.67041 0 9.71208Z" fill="black"/>
</svg>
